M48
;DRILL file {Pcbnew (2012-apr-16-27)-stable} date So 28 Sep 2014 10:33:05 CEST
;FORMAT={-:-/ absolute / metric / decimal}
FMAT,2
METRIC,TZ
T1C0.813
T2C1.016
T3C1.143
T4C3.048
%
G90
G05
M71
T1
X105.001Y98.730
X105.001Y101.270
X105.001Y106.731
X105.001Y109.271
X111.999Y99.731
X111.999Y102.271
X111.999Y105.730
X111.999Y108.270
X113.731Y88.999
X116.271Y88.999
X120.000Y84.191
X120.000Y91.811
X138.001Y117.460
X138.001Y122.540
X140.000Y104.191
X140.000Y111.811
X142.730Y117.000
X142.730Y123.000
X143.190Y98.001
X145.270Y117.000
X145.270Y123.000
X145.570Y100.190
X145.570Y107.810
X146.111Y86.190
X146.111Y93.810
X148.110Y100.190
X148.110Y107.810
X148.651Y86.190
X148.651Y93.810
X150.000Y111.920
X150.000Y122.080
X150.650Y100.190
X150.650Y107.810
X150.810Y98.001
X151.191Y86.190
X151.191Y93.810
X153.190Y100.190
X153.190Y107.810
X153.731Y86.190
X153.731Y93.810
X153.731Y123.000
X155.730Y100.190
X155.730Y107.810
X155.920Y114.000
X156.271Y86.190
X156.271Y93.810
X156.271Y123.000
X158.270Y100.190
X158.270Y107.810
X158.811Y86.190
X158.811Y93.810
X160.810Y100.190
X160.810Y107.810
X161.351Y86.190
X161.351Y93.810
X163.350Y100.190
X163.350Y107.810
X163.459Y123.000
X163.891Y86.190
X163.891Y93.810
X165.890Y100.190
X165.890Y107.810
X165.999Y123.000
X166.080Y114.000
X168.430Y100.190
X168.430Y107.810
X168.539Y123.000
X170.190Y114.000
X171.191Y88.999
X173.731Y88.999
X174.460Y123.000
X176.271Y88.999
X177.000Y123.000
X178.811Y88.999
X179.540Y123.000
X180.810Y114.000
T2
X124.920Y88.730
X124.920Y91.270
X127.460Y88.730
X127.460Y91.270
X130.000Y88.730
X130.000Y91.270
X132.540Y88.730
X132.540Y91.270
X135.080Y88.730
X135.080Y91.270
T3
X117.000Y101.460
X117.000Y104.000
X117.000Y106.540
T4
X133.510Y104.000
T0
M30
